<svg xmlns="http://www.w3.org/2000/svg" viewBox="0 0 512 512">
  <rect width="512" height="512" rx="64" ry="64" fill="#2b4a42"/>
  <g transform="translate(30.7, 17.9) scale(0.7872)">
    <path d="M194.4538,418.1921v-187.4432L0,36.2925v382.0028l61.153,58.6743V176.0148l72.1477,72.1472v298.0307l61.153,58.6743,374.1367.0165-186.6915-186.6915h-187.4452ZM194.4538,551.4959v-74.5015l167.4306.0248,74.2211,74.4767h-241.6517Z" fill="#f1efe9"/>
    <path d="M385.6297,194.4522v187.9636l186.6868,186.6873-.0134-374.6509-58.6733-61.1525H215.5981l-72.1467-72.1472h300.9549L385.7324,0H3.2128l194.4522,194.4522h187.9646ZM516.761,194.4522l2.1694,241.6527-74.4772-74.2206-.0645-167.4321h72.3723Z" fill="#e1a521"/>
  </g>
</svg>
